<?xml version="1.0" standalone="no"?>
<!DOCTYPE svg PUBLIC "-//W3C//DTD SVG 20010904//EN"
 "http://www.w3.org/TR/2001/REC-SVG-20010904/DTD/svg10.dtd">
<svg version="1.0" xmlns="http://www.w3.org/2000/svg"
 width="256.000000pt" height="256.000000pt" viewBox="0 0 256.000000 256.000000"
 preserveAspectRatio="xMidYMid meet">

<g transform="translate(0.000000,256.000000) scale(0.100000,-0.100000)"
fill="#000000" stroke="none">
<path d="M0 1280 l0 -1280 1280 0 1280 0 0 1280 0 1280 -1280 0 -1280 0 0
-1280z m1761 373 c16 -10 29 -21 29 -25 0 -4 13 -14 28 -22 29 -15 50 -66 83
-198 6 -27 13 -48 16 -48 2 0 14 12 27 27 21 24 26 26 50 15 20 -9 26 -9 26 1
0 6 5 53 11 102 14 112 30 152 63 161 14 3 108 4 208 2 155 -2 188 -6 211 -21
19 -12 27 -26 27 -45 0 -53 -32 -72 -110 -65 l-57 6 -7 -214 c-11 -353 -15
-366 -109 -356 -37 3 -55 10 -69 28 -17 22 -18 37 -13 169 3 80 8 179 11 220
9 136 -12 53 -46 -175 -17 -121 -37 -226 -42 -232 -16 -19 -62 -16 -91 7 -22
17 -26 18 -37 5 -19 -23 -68 -18 -95 9 -13 13 -27 41 -30 62 -10 59 -76 396
-82 422 -4 16 -12 22 -34 22 -28 0 -29 -1 -29 -52 0 -29 3 -90 7 -135 5 -76 7
-81 24 -72 26 13 57 -5 65 -37 4 -14 4 -50 0 -81 -19 -165 -154 -218 -240 -95
-80 117 -86 374 -12 521 49 96 144 137 217 94z m-751 -22 c-5 -11 -10 -24 -10
-28 0 -5 79 -45 176 -89 101 -45 179 -86 183 -96 3 -9 4 -49 1 -88 l-5 -72
-175 -80 c-96 -44 -185 -84 -197 -89 -23 -8 -23 -8 -23 89 l0 98 71 30 c39 16
71 34 71 39 0 6 -32 23 -71 39 l-70 29 -3 51 -3 51 -117 -238 -118 -237 -101
0 c-86 0 -100 2 -95 15 3 8 8 21 11 28 4 8 -55 40 -180 96 l-185 84 0 82 0 82
60 27 c33 15 123 56 200 91 l140 64 0 -98 0 -98 -76 -35 -77 -34 74 -31 74
-31 3 -51 c2 -28 6 -51 10 -51 4 0 60 106 125 235 l117 235 100 0 c96 0 100
-1 90 -19z"/>
</g>
</svg>
